<svg width="514" height="602" viewBox="0 0 514 602" fill="none" xmlns="http://www.w3.org/2000/svg">
<path d="M364.575 9.59987L334.1 52.5749C381.75 75.2249 416.125 117.425 420.05 166.65H95.05C98.95 117.425 132.55 75.2499 180.2 52.5749L149.725 9.59987C148.15 6.47487 148.95 3.34987 151.3 1.77487C153.65 0.199874 156.775 0.999867 159.125 3.34987L190.375 48.6749C210.7 40.8499 233.35 36.1749 257.575 36.1749C281.8 36.1749 303.675 40.8749 324.775 48.6749L356.025 3.34987C357.6 0.999867 360.725 0.224874 363.05 1.77487C365.375 3.32487 366.175 6.47487 364.625 9.59987H364.575ZM188.775 121.325C198.925 121.325 206.75 113.5 206.75 103.35C206.75 93.9749 198.925 85.3749 188.775 85.3749C179.4 85.3749 170.8 93.9749 170.8 103.35C170.8 113.5 179.4 121.325 188.775 121.325ZM327.85 121.325C338 121.325 345.825 113.5 345.825 103.35C345.825 93.9749 338 85.3749 327.85 85.3749C318.475 85.3749 309.875 93.9749 309.875 103.35C309.875 113.5 318.475 121.325 327.85 121.325ZM0.5 370.525V226C0.5 205.675 16.125 188.5 37.225 188.5C57.55 188.5 73.175 205.7 73.175 226V370.525C73.175 391.625 57.55 408.025 37.225 408.025C16.125 408.025 0.5 391.625 0.5 370.525ZM440.35 370.525V226C440.35 205.675 456.75 188.5 477.075 188.5C497.4 188.5 513.8 205.7 513.8 226V370.525C513.8 391.625 497.4 408.025 477.075 408.025C456.75 408.025 440.35 391.625 440.35 370.525ZM95.825 454.125V189.275H420.825V454.125C420.825 469.75 407.55 483.025 391.925 483.025H359.9V565.05C359.9 585.375 343.5 601.775 323.175 601.775C302.85 601.775 286.45 585.375 286.45 565.05V483.025H229.425V565.05C229.425 585.375 213.8 601.775 193.475 601.775C172.375 601.775 156.75 585.375 156.75 565.05V483.025H123.925C109.075 483.025 95.825 469.75 95.825 454.125Z" fill="#A5BD4E"/>
</svg>
