<svg width="640" height="800" viewBox="0 0 640 800" fill="none" xmlns="http://www.w3.org/2000/svg">
<path fill-rule="evenodd" clip-rule="evenodd" d="M324.862 229.413C355.85 229.413 413.952 186.333 475.125 192.615C500.727 193.702 572.575 203.15 618.726 271.975C615.042 274.431 532.943 323.133 533.935 424.551C534.974 545.763 638.094 586.009 639.275 586.623C638.33 589.363 622.789 644.064 584.904 700.56C552.169 749.356 518.252 797.916 464.779 798.908C412.204 799.947 395.293 767.117 335.16 767.117C275.074 767.117 256.32 797.916 206.532 799.947C154.902 801.932 115.6 747.231 82.6279 698.623C15.1729 599.094 -36.3629 417.513 32.84 294.932C67.1817 234.043 128.59 195.497 195.29 194.505C245.975 193.56 293.874 229.413 324.862 229.413ZM489.479 0C494.912 46.0567 475.025 92.3021 445.69 125.604C416.214 158.86 367.985 184.746 320.7 181.25C314.323 136.044 338.178 89.09 365.387 59.5192C395.808 26.2642 447.155 1.60625 489.479 0Z" fill="#FFF7ED"/>
</svg>
