<svg width="300" height="300" viewBox="0 0 300 300" fill="none" xmlns="http://www.w3.org/2000/svg">
<path d="M84.5626 144.131C84.5626 147.825 84.9376 150.825 85.6501 153.037C86.4376 155.231 87.4501 157.631 88.8376 160.237C89.2804 160.926 89.5207 161.725 89.5313 162.544C89.5313 163.537 88.9313 164.55 87.6563 165.544L81.3564 169.744C80.6001 170.29 79.7007 170.603 78.7689 170.644C77.7564 170.644 76.7626 170.156 75.7688 169.256C74.4212 167.806 73.2157 166.23 72.1688 164.55C71.0534 162.627 70.0212 160.656 69.0751 158.644C61.2938 167.85 51.5251 172.463 39.7501 172.463C31.3688 172.463 24.6751 170.044 19.8001 165.244C14.9063 160.444 12.4126 154.031 12.4126 146.025C12.4126 137.513 15.4126 130.613 21.4876 125.4C27.5813 120.188 35.6626 117.6 45.9376 117.6C49.3126 117.6 52.8188 117.9 56.5126 118.388C60.2063 118.894 64.0126 119.7 67.9876 120.6V113.288C67.9876 105.675 66.3938 100.369 63.3001 97.275C60.1126 94.1625 54.7126 92.6625 47.0251 92.6625C43.5376 92.6625 39.9563 93.075 36.2626 93.975C32.5927 94.8484 28.9898 95.9825 25.4813 97.3688C24.3486 97.8816 23.1836 98.32 21.9938 98.6813C21.4783 98.8516 20.9423 98.9525 20.4001 98.9812C18.9938 98.9812 18.3001 97.9688 18.3001 95.8688V90.9563C18.3001 89.3625 18.4876 88.1438 18.9938 87.4688C19.7494 86.5488 20.7136 85.8224 21.8063 85.35C25.2751 83.55 29.4751 82.05 34.3688 80.85C39.2438 79.5375 44.4376 78.9563 49.9314 78.9563C61.8001 78.9563 70.4814 81.6563 76.0689 87.0563C81.5626 92.4563 84.3564 100.669 84.3564 111.694V144.131H84.5438H84.5626ZM44.0438 159.338C47.3251 159.338 50.7189 158.738 54.3189 157.538C57.9001 156.338 61.1063 154.125 63.7876 151.125C65.3954 149.283 66.5567 147.095 67.1813 144.731C67.7813 142.313 68.1939 139.425 68.1939 136.013V131.813C65.1654 131.078 62.0981 130.515 59.0064 130.125C55.8974 129.723 52.7662 129.516 49.6314 129.506C42.9376 129.506 38.0438 130.819 34.7626 133.519C31.4626 136.219 29.8876 140.025 29.8876 145.031C29.8876 149.719 31.0688 153.225 33.5626 155.644C35.9626 158.137 39.4501 159.338 44.0438 159.338ZM124.163 170.156C122.363 170.156 121.163 169.856 120.375 169.144C119.569 168.544 118.875 167.156 118.275 165.244L94.8376 87.8625C94.3753 86.5656 94.067 85.2189 93.9188 83.85C93.9188 82.2563 94.7251 81.3563 96.3188 81.3563H106.106C107.981 81.3563 109.294 81.6563 109.988 82.35C110.794 82.95 111.394 84.3563 111.994 86.25L128.756 152.531L144.319 86.25C144.806 84.2625 145.406 82.95 146.194 82.35C147.397 81.6131 148.798 81.266 150.206 81.3563H158.175C160.088 81.3563 161.363 81.6563 162.169 82.35C162.975 82.95 163.669 84.3563 164.063 86.25L179.831 153.338L197.081 86.25C197.401 84.7983 198.093 83.4544 199.088 82.35C200.249 81.6137 201.615 81.2657 202.988 81.3563H212.269C213.863 81.3563 214.763 82.1625 214.763 83.85C214.763 84.3563 214.65 84.8625 214.575 85.4625C214.414 86.3137 214.175 87.1484 213.863 87.9563L189.806 165.338C189.206 167.344 188.513 168.656 187.725 169.256C186.593 169.98 185.261 170.328 183.919 170.25H175.35C173.456 170.25 172.163 169.95 171.356 169.256C170.55 168.544 169.856 167.25 169.463 165.244L153.994 100.688L138.619 165.169C138.131 167.175 137.531 168.469 136.744 169.163C135.938 169.875 134.531 170.175 132.75 170.175H124.163V170.156ZM252.375 172.856C247.197 172.863 242.036 172.259 237 171.056C232.013 169.856 228.131 168.544 225.525 167.044C223.931 166.144 222.844 165.15 222.431 164.231C222.05 163.349 221.852 162.399 221.85 161.437V156.338C221.85 154.238 222.638 153.225 224.138 153.225C224.75 153.226 225.358 153.328 225.938 153.525C226.538 153.731 227.438 154.125 228.431 154.537C231.806 156.037 235.519 157.238 239.4 158.044C243.394 158.831 247.275 159.244 251.269 159.244C257.569 159.244 262.444 158.138 265.838 155.944C267.468 154.957 268.808 153.555 269.72 151.882C270.632 150.209 271.085 148.324 271.031 146.419C271.065 145.133 270.844 143.852 270.38 142.652C269.917 141.452 269.221 140.355 268.331 139.425C266.55 137.513 263.156 135.806 258.263 134.213L243.788 129.713C236.513 127.406 231.113 123.994 227.831 119.494C224.619 115.336 222.866 110.235 222.844 104.981C222.844 100.781 223.744 97.0688 225.525 93.8625C227.325 90.675 229.725 87.8625 232.725 85.65C235.725 83.3625 239.1 81.6563 243.094 80.4563C247.088 79.2563 251.269 78.75 255.656 78.75C257.869 78.75 260.156 78.8438 262.35 79.1438C264.638 79.4438 266.738 79.8563 268.838 80.2688C270.825 80.7563 272.738 81.2438 274.519 81.8625C276.319 82.4625 277.706 83.0625 278.719 83.6625C279.896 84.2537 280.922 85.1068 281.719 86.1562C282.361 87.1325 282.67 88.29 282.6 89.4563V94.1625C282.6 96.2625 281.813 97.3688 280.313 97.3688C278.984 97.2171 277.698 96.8096 276.525 96.1688C270.496 93.4955 263.957 92.1647 257.363 92.2688C251.681 92.2688 247.181 93.1688 244.088 95.0813C240.994 96.9563 239.4 99.8813 239.4 103.988C239.4 106.781 240.394 109.181 242.4 111.094C244.388 112.988 248.081 114.881 253.369 116.588L267.544 121.088C274.725 123.394 279.919 126.6 283.013 130.706C286.106 134.813 287.588 139.519 287.588 144.731C287.588 149.044 286.706 152.925 285 156.338C283.234 159.762 280.753 162.767 277.725 165.15C274.631 167.644 270.938 169.463 266.644 170.756C262.144 172.163 257.456 172.856 252.375 172.856Z" fill="#252F3E"/>
<path fill-rule="evenodd" clip-rule="evenodd" d="M271.219 221.494C238.406 245.813 190.706 258.731 149.7 258.731C92.2312 258.731 40.4437 237.413 1.33116 201.975C-1.76259 199.163 1.03116 195.356 4.70616 197.569C47.0249 222.188 99.2061 237.113 153.206 237.113C189.6 237.113 229.612 229.5 266.437 213.881C271.931 211.388 276.619 217.481 271.219 221.494Z" fill="#FF9900"/>
<path fill-rule="evenodd" clip-rule="evenodd" d="M284.888 205.875C280.706 200.494 257.156 203.287 246.488 204.581C243.3 204.994 242.794 202.181 245.681 200.081C264.431 186.862 295.275 190.669 298.856 195.075C302.456 199.575 297.863 230.512 280.294 245.325C277.613 247.631 275.025 246.45 276.206 243.45C280.2 233.512 289.088 211.2 284.888 205.894V205.875Z" fill="#FF9900"/>
</svg>
