<svg width="400" height="361" viewBox="0 0 400 361" fill="none" xmlns="http://www.w3.org/2000/svg">
<path d="M0 315.666C0.716667 324.5 3.83333 333.383 11.9667 345.3C21.6333 359.45 38.2333 367.216 50.35 354.75C58.5167 346.333 146.917 191.816 189.517 133.25C190.686 131.575 192.241 130.208 194.052 129.263C195.863 128.319 197.875 127.826 199.917 127.826C201.959 127.826 203.971 128.319 205.781 129.263C207.592 130.208 209.148 131.575 210.317 133.25C252.917 191.816 341.317 346.333 349.483 354.75C361.6 367.216 378.2 359.45 387.867 345.3C397.367 331.383 400 321.633 400 311.2C400 304.1 262.333 47.8995 248.467 26.5662C235.133 6.06621 231.067 1.59954 208.517 0.866211H191.317C168.767 1.59954 164.7 6.04954 151.35 26.5662C137.783 47.4495 5.5 293.566 0 310.433V315.666Z" fill="#FFF7ED"/>
</svg>
