<svg width="300" height="300" viewBox="0 0 300 300" fill="none" xmlns="http://www.w3.org/2000/svg">
<path d="M54.375 230.625L55.9687 228.403L131.156 85.7719L131.316 84.2625L98.175 22.0125C97.5683 20.8742 96.619 19.9554 95.4614 19.3862C94.3039 18.817 92.9966 18.6262 91.7247 18.8408C90.4527 19.0554 89.2804 19.6645 88.3737 20.582C87.4669 21.4994 86.8716 22.6787 86.6719 23.9531L54.375 230.625Z" fill="#FFC24A"/>
<path d="M55.3125 228.938L56.5125 226.594L130.922 85.4438L97.8656 22.95C97.3205 21.8632 96.4379 20.9823 95.3501 20.4392C94.2622 19.8961 93.0277 19.7202 91.8314 19.9377C90.6352 20.1552 89.5416 20.7544 88.7145 21.6457C87.8875 22.5369 87.3714 23.6721 87.2437 24.8813L55.3125 228.938Z" fill="#FFA712"/>
<path d="M155.475 131.344L180.15 106.031L155.466 58.9594C154.922 57.9463 154.114 57.0995 153.128 56.5092C152.142 55.9189 151.014 55.6072 149.864 55.6072C148.714 55.6072 147.586 55.9189 146.6 56.5092C145.614 57.0995 144.806 57.9463 144.262 58.9594L131.072 84.1031V86.25L155.475 131.344Z" fill="#F4BD62"/>
<path d="M155.034 130.312L179.025 105.75L155.034 60C154.642 59.0097 153.971 58.1541 153.103 57.5364C152.235 56.9187 151.207 56.5653 150.143 56.5187C149.078 56.4721 148.023 56.7344 147.105 57.2739C146.186 57.8134 145.443 58.6071 144.966 59.5594L131.709 85.1437L131.316 86.4469L155.034 130.312Z" fill="#FFA50E"/>
<path d="M54.3938 230.634L55.1157 229.903L57.7313 228.844L153.919 133.012L155.138 129.694L131.147 83.9624L54.3938 230.634Z" fill="#F6820C"/>
<path d="M158.55 278.963L245.625 230.409L220.744 77.3063C220.565 76.227 220.093 75.2177 219.379 74.3892C218.664 73.5608 217.736 72.9452 216.694 72.61C215.653 72.2749 214.539 72.2331 213.476 72.4893C212.412 72.7456 211.44 73.2899 210.666 74.0625L54.375 230.625L140.934 278.953C143.625 280.455 146.656 281.243 149.737 281.243C152.819 281.243 155.85 280.455 158.541 278.953" fill="#FDE068"/>
<path d="M244.828 230.006L220.153 78.0564C220.11 77.0241 219.761 76.0279 219.151 75.1939C218.541 74.3599 217.697 73.7256 216.727 73.3713C215.756 73.017 214.702 72.9586 213.698 73.2035C212.694 73.4484 211.786 73.9855 211.088 74.747L55.3125 230.335L140.916 278.147C143.585 279.636 146.591 280.418 149.648 280.418C152.705 280.418 155.712 279.636 158.381 278.147L244.828 230.006Z" fill="#FCCA3F"/>
<path d="M158.55 277.5C155.859 279.002 152.829 279.79 149.747 279.79C146.665 279.79 143.635 279.002 140.944 277.5L55.0875 229.894L54.375 230.625L140.934 278.953C143.625 280.455 146.656 281.243 149.737 281.243C152.819 281.243 155.85 280.455 158.541 278.953L245.625 230.409L245.409 229.097L158.55 277.5Z" fill="#EEAB37"/>
</svg>
