<svg width="120" height="163" viewBox="0 0 120 163" fill="none" xmlns="http://www.w3.org/2000/svg">
<path fill-rule="evenodd" clip-rule="evenodd" d="M46 1.56002C0.599045 11.346 -15.734 69.769 17.776 102.51C39.071 123.315 75.791 124.9 97.327 105.943C103.1 100.862 103.702 101.271 102.322 109.331C95.927 146.664 51.897 158.468 25.702 129.872C19.543 123.148 17.144 122.681 12.25 127.248C3.73305 135.198 22.762 154.796 44.495 160.457C75.998 168.662 110.053 148.332 117.463 116.897C119.408 108.642 119.753 13.3 117.85 9.68402C114.102 2.56302 103 6.10002 103 14.414V17.92L96.25 12.799C81.275 1.43802 64.24 -2.37198 46 1.56002ZM69.465 17.533C93.441 23.778 107.525 46.789 101.578 70C90.431 113.514 29.975 113.909 17.459 70.55C8.68405 40.149 38.723 9.52602 69.465 17.533Z" fill="white"/>
</svg>
