<svg width="791" height="290" viewBox="0 0 791 290" fill="none" xmlns="http://www.w3.org/2000/svg">
<path d="M0 273.298V37.2112C0 27.2566 3.54881 18.9309 10.6102 12.198C17.6716 5.46509 26.0005 2.09863 35.4881 2.09863H65.6893C72.7507 2.09863 76.2995 5.60989 76.2995 12.5962V106.242C76.2995 110.839 77.929 113.988 81.1882 115.726C84.4473 117.463 87.0184 118.332 88.9376 118.332C105.813 118.079 119.899 116.775 131.197 114.495C142.496 112.214 153.432 108.776 164.042 104.215C166.215 103.129 168.134 101.681 169.764 99.7621C171.393 97.8798 172.226 95.4545 172.226 92.4862V37.2112C172.226 31.8176 173.24 27.0032 175.268 22.6956C177.332 18.3879 180.048 14.6957 183.452 11.6188C186.856 8.54196 190.658 6.15286 194.895 4.56013C199.096 2.9312 203.405 2.13483 207.75 2.13483H237.952C245.013 2.13483 248.562 5.64608 248.562 12.6324V273.298C248.562 276.519 247.584 279.017 245.701 280.755C243.782 282.492 241.211 283.361 237.952 283.361H182.873C180.157 283.361 177.694 282.42 175.521 280.537C173.349 278.655 172.262 276.23 172.262 273.261V177.661C172.262 173.607 170.959 170.675 168.388 168.793C165.78 166.91 163.028 165.969 160.023 165.969C158.936 165.969 157.596 166.223 155.931 166.766C142.604 170.53 129.206 172.955 115.735 174.041C102.264 175.127 90.3499 175.67 80.0294 175.67C74.5975 175.67 69.9623 175.598 66.16 175.489C62.3215 175.345 59.3521 175.272 57.1794 175.272C62.6112 176.069 67.174 178.421 70.8314 182.331C74.4889 186.24 76.3357 190.874 76.3357 196.267V273.334C76.3357 276.556 75.3942 279.053 73.4749 280.791C71.5557 282.528 68.9846 283.397 65.7255 283.397H10.2119C7.20626 283.397 4.78003 282.456 2.86078 280.574C0.941522 278.655 0 276.266 0 273.298Z" fill="white"/>
<path d="M537.434 200.638C537.434 217.102 533.498 230.983 525.572 242.282C517.7 253.635 507.641 262.782 495.45 269.83C483.26 276.825 469.703 281.882 454.724 285.003C439.746 288.124 425.204 289.684 411.1 289.684C397.543 289.684 383.494 288.339 368.898 285.649C354.357 282.959 340.964 278.439 328.773 272.09C316.582 265.741 306.414 257.401 298.214 247.017C290.069 236.633 285.532 223.774 284.712 208.385C284.712 205.964 285.641 203.92 287.391 202.305C289.195 200.691 291.327 199.884 293.841 199.884H349.109C350.803 199.884 352.225 199.992 353.482 200.261C354.739 200.53 355.887 200.906 357.035 201.498C359.003 202.574 361.354 204.458 364.087 207.148C368.515 215.81 375.13 221.675 383.822 224.742C392.569 227.863 401.643 229.423 411.046 229.423C415.2 229.423 419.956 229.154 425.368 228.616C430.78 228.078 435.755 226.948 440.347 225.172C444.939 223.397 448.875 220.868 452.209 217.478C455.544 214.142 457.184 209.731 457.184 204.35C457.184 197.086 454.396 191.814 448.875 188.585C443.353 185.357 437.504 182.774 431.436 180.891C426.735 179.277 421.104 177.717 414.599 176.21C408.094 174.757 400.55 173.197 391.967 171.529C379.23 169.108 366.875 165.933 354.958 162.006C343.041 158.078 332.436 152.913 323.142 146.402C313.849 139.946 306.36 131.768 300.675 121.921C294.989 112.075 292.147 100.023 292.147 85.7108C292.147 67.9015 297.176 52.6209 307.289 39.8154C317.402 27.0099 330.632 17.2175 346.977 10.4919C364.689 3.49729 385.079 0 408.094 0C417.223 0 426.735 0.753244 436.575 2.20597C446.415 3.7125 455.981 6.1337 465.275 9.46959C474.568 12.8593 483.205 17.2713 491.241 22.8132C499.277 28.355 506.22 35.0268 512.014 42.8285C521.417 54.7193 526.556 66.7177 527.376 78.8238C527.376 80.976 526.446 83.0206 524.642 84.9037C522.838 86.7869 520.816 87.7554 518.629 87.7554H460.409C454.615 87.7554 450.023 85.3342 446.688 80.4917C445.048 74.8423 440.73 69.946 433.787 65.9107C426.298 62.1444 417.715 60.2612 408.039 60.2612C403.884 60.2612 399.675 60.5302 395.357 61.0683C391.038 61.6063 387.102 62.8438 383.494 64.727C379.886 66.6101 376.989 69.139 374.747 72.2058C372.506 75.3265 371.413 79.308 371.413 84.1505C371.413 91.6831 375.567 97.763 383.877 102.336C392.186 106.641 407.711 111.107 430.398 115.68C443.408 118.101 456.364 121.007 469.265 124.396C482.167 127.786 493.592 132.575 503.541 138.762C513.545 144.95 521.636 152.967 527.868 162.813C534.318 172.713 537.434 185.303 537.434 200.638Z" fill="white"/>
<path d="M576.314 279.293V36.1483C576.314 30.8974 577.354 26.0334 579.433 21.6116C581.513 17.1898 584.194 13.376 587.532 10.1702C590.87 6.96434 594.755 4.47708 599.187 2.70835C603.619 0.939624 608.051 0 612.484 0H779.322C782.058 0 784.575 1.10545 786.819 3.31635C789.062 5.52726 790.156 8.01452 790.156 10.7782V54.8305C790.156 57.8705 789.062 60.2472 786.819 61.9054C784.849 63.8399 782.386 64.8348 779.322 64.8348H629.556C635.63 64.8348 640.992 67.0458 645.589 71.4676C650.185 75.8894 652.429 81.1403 652.429 87.2756V122.595H752.291C759.514 122.595 763.125 126.188 763.125 133.428V177.038C763.125 180.355 762.14 182.953 760.225 184.721C758.255 186.545 755.629 187.43 752.346 187.43H629.611C635.137 187.43 640.336 189.53 645.206 193.675C650.076 197.821 652.483 203.072 652.483 209.483V279.293C652.483 282.333 651.498 284.82 649.583 286.755C647.887 288.689 645.425 289.684 642.087 289.684H586.766C583.702 289.684 581.239 288.745 579.269 286.755C577.299 284.82 576.314 282.333 576.314 279.293Z" fill="white"/>
</svg>
