<svg width="300" height="300" viewBox="0 0 300 300" fill="none" xmlns="http://www.w3.org/2000/svg">
<path d="M0 50C0 22.3858 22.3858 0 50 0H250C277.614 0 300 22.3858 300 50V250C300 277.614 277.614 300 250 300H50C22.3858 300 0 277.614 0 250V50Z" fill="#F88D2B"/>
<path d="M37.749 188.618V119.452C37.749 116.536 38.7887 114.096 40.8575 112.124C42.9263 110.151 45.3664 109.165 48.1459 109.165H56.9939C59.0627 109.165 60.1024 110.194 60.1024 112.24V139.676C60.1024 141.023 60.5798 141.945 61.5346 142.454C62.4894 142.963 63.2427 143.218 63.805 143.218C68.7488 143.144 72.8757 142.762 76.1858 142.094C79.4958 141.426 82.6998 140.418 85.8082 139.082C86.4448 138.764 87.0071 138.339 87.4845 137.777C87.9619 137.226 88.2059 136.515 88.2059 135.646V119.452C88.2059 117.872 88.5029 116.461 89.097 115.199C89.7018 113.937 90.4974 112.856 91.4947 111.954C92.492 111.053 93.6059 110.353 94.8472 109.886C96.0778 109.409 97.3403 109.176 98.6134 109.176H107.461C109.53 109.176 110.57 110.204 110.57 112.251V188.618C110.57 189.562 110.283 190.293 109.732 190.803C109.169 191.312 108.416 191.566 107.461 191.566H91.325C90.5293 191.566 89.8079 191.29 89.1713 190.739C88.5348 190.187 88.2165 189.477 88.2165 188.607V160.599C88.2165 159.412 87.8346 158.553 87.0813 158.001C86.3175 157.45 85.5112 157.174 84.6306 157.174C84.3123 157.174 83.9198 157.248 83.4318 157.407C79.5276 158.51 75.6023 159.221 71.6557 159.539C67.7091 159.857 64.2187 160.016 61.1951 160.016C59.6038 160.016 58.2458 159.995 57.1318 159.963V159.963C56.8941 159.954 56.7705 160.626 56.9761 160.745C57.5325 161.069 58.0408 161.476 58.5004 161.967C59.5719 163.113 60.113 164.47 60.113 166.05V188.628C60.113 189.572 59.8372 190.304 59.2749 190.813C58.7126 191.322 57.9593 191.577 57.0045 191.577H40.7408C39.8602 191.577 39.1494 191.301 38.5871 190.749C38.0249 190.187 37.749 189.487 37.749 188.618Z" fill="#F2F2F2"/>
<path d="M195.202 167.335C195.202 172.159 194.049 176.226 191.726 179.536C189.42 182.862 186.473 185.542 182.902 187.607C179.33 189.656 175.359 191.137 170.97 192.052C166.582 192.966 162.322 193.423 158.19 193.423C154.218 193.423 150.102 193.029 145.826 192.241C141.566 191.453 137.642 190.129 134.071 188.269C130.499 186.409 127.52 183.965 125.118 180.923C122.732 177.881 121.402 174.113 121.162 169.605C121.162 168.896 121.434 168.297 121.947 167.824C122.475 167.351 123.1 167.115 123.837 167.115H140.028C140.525 167.115 140.941 167.146 141.31 167.225C141.678 167.304 142.014 167.414 142.351 167.587V167.587C143.894 168.431 144.738 170.113 145.879 171.452C147.034 172.808 148.477 173.79 150.198 174.397C152.761 175.311 155.419 175.768 158.174 175.768C159.391 175.768 160.785 175.69 162.37 175.532C163.956 175.374 165.413 175.043 166.758 174.523C168.104 174.003 169.257 173.262 170.234 172.269C171.211 171.292 171.691 169.999 171.691 168.423C171.691 166.295 170.874 164.75 169.257 163.804C167.639 162.858 165.925 162.102 164.148 161.55C162.77 161.077 161.121 160.62 159.215 160.179C157.309 159.753 155.099 159.296 152.585 158.807C148.853 158.098 145.233 157.168 141.742 156.017C138.251 154.867 135.144 153.353 132.421 151.446C129.698 149.554 127.504 147.158 125.839 144.274C124.173 141.389 123.34 137.858 123.34 133.665C123.34 128.448 124.814 123.971 127.777 120.219C130.739 116.468 134.615 113.599 139.404 111.628C144.593 109.579 150.567 108.555 157.309 108.555C159.984 108.555 162.77 108.775 165.653 109.201C168.536 109.642 171.339 110.352 174.061 111.329C176.784 112.322 179.314 113.615 181.669 115.238C184.023 116.862 186.057 118.816 187.755 121.102C190.509 124.586 192.015 128.101 192.255 131.648C192.255 132.278 191.983 132.877 191.454 133.429C190.926 133.981 190.333 134.264 189.693 134.264H172.636V134.264C169.49 134.264 168.329 130.272 165.761 128.456C165.473 128.252 165.164 128.055 164.836 127.864C162.642 126.761 160.128 126.209 157.293 126.209C156.076 126.209 154.843 126.288 153.578 126.446C152.312 126.603 151.159 126.966 150.102 127.518C149.045 128.069 148.196 128.81 147.54 129.709C146.883 130.623 146.563 131.789 146.563 133.208C146.563 135.415 147.78 137.196 150.214 138.536C152.649 139.797 157.197 141.105 163.843 142.445C167.655 143.155 171.451 144.006 175.23 144.999C179.01 145.992 182.357 147.395 185.272 149.208C188.203 151.02 190.573 153.369 192.399 156.254C194.289 159.154 195.202 162.843 195.202 167.335Z" fill="#F2F2F2"/>
<path d="M206.592 190.379V119.145C206.592 117.607 206.896 116.182 207.506 114.886C208.115 113.591 208.9 112.473 209.878 111.534C210.856 110.595 211.994 109.866 213.293 109.348C214.591 108.83 215.89 108.555 217.188 108.555H266.067C266.868 108.555 267.606 108.879 268.263 109.526C268.92 110.174 269.241 110.903 269.241 111.712V124.618C269.241 125.509 268.92 126.205 268.263 126.691C267.686 127.258 266.964 127.549 266.067 127.549H222.19C223.969 127.549 225.54 128.197 226.887 129.492C228.234 130.788 228.891 132.326 228.891 134.124V134.124C228.891 139.838 233.524 144.471 239.238 144.471H258.147C260.263 144.471 261.321 145.524 261.321 147.645V160.421C261.321 161.393 261.033 162.154 260.472 162.672C259.895 163.207 259.125 163.466 258.163 163.466H222.206C223.825 163.466 225.348 164.081 226.775 165.296C228.202 166.51 228.907 168.048 228.907 169.927V190.379C228.907 191.269 228.618 191.998 228.057 192.565C227.56 193.132 226.839 193.423 225.861 193.423H209.654C208.756 193.423 208.035 193.148 207.457 192.565C206.88 191.998 206.592 191.269 206.592 190.379Z" fill="#F2F2F2"/>
</svg>
