<svg width="300" height="300" viewBox="0 0 300 300" fill="none" xmlns="http://www.w3.org/2000/svg">
<g clip-path="url(#clip0_129_2)">
<path d="M0 0H300V300H0V0ZM275.425 228.45C273.238 214.762 264.325 203.262 237.888 192.537C228.688 188.225 218.462 185.225 215.425 178.287C214.287 174.162 214.112 171.912 214.85 169.475C216.725 161.4 226.287 158.975 233.787 161.225C238.662 162.725 243.163 166.475 245.988 172.475C258.913 164.025 258.912 164.025 267.925 158.413C264.55 153.163 262.875 150.9 260.6 148.662C252.725 139.85 242.237 135.35 225.175 135.738L216.363 136.85C207.913 138.912 199.862 143.413 194.987 149.413C180.737 165.55 184.85 193.675 202.1 205.3C219.162 218.05 244.113 220.85 247.3 232.862C250.3 247.487 236.425 252.175 222.725 250.487C212.588 248.237 206.975 243.162 200.787 233.787L177.912 246.925C180.537 252.925 183.538 255.538 188.038 260.788C209.788 282.738 264.162 281.612 273.925 248.237C274.287 247.112 276.925 239.425 274.85 227.612L275.425 228.45ZM163.137 137.888H135.038C135.038 162.113 134.925 186.188 134.925 210.45C134.925 225.85 135.713 239.988 133.2 244.338C129.075 252.95 118.45 251.85 113.625 250.338C108.675 247.888 106.163 244.513 103.25 239.65C102.463 238.338 101.875 237.2 101.663 237.2L78.85 251.262C82.6625 259.137 88.225 265.913 95.4 270.225C106.087 276.6 120.45 278.663 135.487 275.288C145.275 272.463 153.712 266.65 158.125 257.65C164.5 246.025 163.15 231.775 163.087 215.825C163.237 190.15 163.087 164.462 163.087 138.587L163.137 137.888Z" fill="#F6DE4E"/>
</g>
<defs>
<clipPath id="clip0_129_2">
<rect width="300" height="300" rx="15" fill="white"/>
</clipPath>
</defs>
</svg>
