<svg width="300" height="300" viewBox="0 0 300 300" fill="none" xmlns="http://www.w3.org/2000/svg">
<path d="M160.992 21.5505C154.338 17.8081 145.662 17.8249 139.002 21.5505C105.646 39.9588 72.2889 58.3726 38.9265 76.7725C32.4346 80.1877 28.056 87.1592 28.1258 94.395V205.62C28.0789 212.997 32.6833 220.036 39.3426 223.404C48.9254 228.503 58.2356 234.118 67.9916 238.877C79.261 244.415 93.3603 245.639 104.767 239.864C114.027 235.078 118.14 224.433 118.128 214.65C118.203 177.943 118.14 141.235 118.157 104.528C118.377 102.896 117.152 101.153 115.372 101.192C111.11 101.124 106.841 101.153 102.578 101.181C100.968 101.029 99.3956 102.367 99.5175 103.986C99.4603 140.456 99.5287 176.938 99.4828 213.414C99.5756 218.46 96.1669 223.309 91.3043 225.013C80.0737 228.95 48.0185 208.136 48.0185 208.136C46.8422 207.592 46.0952 206.316 46.2105 205.048C46.2105 168.353 46.2162 131.656 46.2105 94.966C46.0488 93.4867 46.9605 92.1544 48.3189 91.5505C81.5656 73.2506 114.795 54.9051 148.042 36.594C149.197 35.8233 150.806 35.8256 151.958 36.5996C185.205 54.9051 218.44 73.2339 251.692 91.5345C253.056 92.1375 253.928 93.4922 253.79 94.966C253.784 131.656 253.801 168.353 253.778 205.043C253.877 206.342 253.206 207.6 251.993 208.17C219.057 226.371 185.746 243.984 153.108 262.714C151.684 263.53 150.07 264.456 148.475 263.556C139.892 258.808 131.413 253.876 122.858 249.083C121.928 248.502 120.744 248.253 119.774 248.903C115.939 250.924 112.331 252.561 107.927 254.304C101.741 256.753 102.729 257.754 108.308 261.005C118.312 266.666 128.333 272.305 138.337 277.973C144.923 282.083 153.772 282.375 160.57 278.577C193.932 260.192 227.284 241.785 260.652 223.4C267.293 220.013 271.921 213.002 271.874 205.619V94.395C271.939 87.306 267.727 80.4588 261.431 76.9931C227.959 58.4951 194.47 40.0373 160.992 21.5505Z" fill="#8CC84B"/>
<path d="M211.33 105.058C198.236 98.0532 182.659 97.6801 168.108 98.5961C157.596 99.6348 146.54 102.535 138.881 110.071C131.026 117.646 129.316 129.879 133.047 139.767C135.721 146.755 142.451 151.299 149.411 153.703C158.377 156.868 167.793 157.847 177.212 158.826C185.803 159.718 194.397 160.612 202.655 163.164C206.028 164.282 209.956 165.992 210.989 169.662C211.943 174.009 210.897 179.061 207.368 182.08C196.16 190.952 164.98 189.593 153.906 182.61C149.428 179.635 147.499 174.369 146.714 169.351C146.627 167.787 145.368 166.353 143.67 166.472C139.418 166.421 135.167 166.433 130.915 166.466C129.432 166.342 127.89 167.397 127.808 168.911C126.935 191.896 148.044 201.916 167.849 204.122C179.164 205.2 190.727 205.138 201.869 202.71C210.245 200.803 218.643 197.291 224.408 190.84C231.518 183 232.916 171.327 229.728 161.561C227.29 154.274 220.324 149.6 213.203 147.195C203.518 143.874 192.041 142.089 183.27 141.254C170.521 140.04 155.371 140.536 151.763 132.159C150.323 127.772 151.548 122.325 155.579 119.627C166.245 112.392 187.953 113.353 198.998 118.758C204.07 121.298 207.009 126.514 208.223 131.78C208.448 133.327 209.488 134.941 211.279 134.874C215.501 134.958 219.724 134.896 223.945 134.902C225.396 135.003 226.984 134.184 227.267 132.699C227.088 121.693 221.468 110.426 211.33 105.058Z" fill="#8CC84B"/>
</svg>
