<svg width="300" height="300" viewBox="0 0 300 300" fill="none" xmlns="http://www.w3.org/2000/svg">
<path fill-rule="evenodd" clip-rule="evenodd" d="M122.029 18.75C101.431 18.75 84.7336 34.9175 84.7336 54.8611V79.8611H149.283V86.8056H56.0451C35.4475 86.8056 18.75 102.973 18.75 122.917V177.083C18.75 197.027 35.4475 213.194 56.0451 213.194H77.5614V182.639C77.5614 162.696 94.2591 146.527 114.857 146.527H183.709C201.138 146.527 215.266 132.848 215.266 115.973V54.8611C215.266 34.9175 198.569 18.75 177.971 18.75H122.029ZM113.422 63.1944C120.552 63.1944 126.332 57.5979 126.332 50.6945C126.332 43.7909 120.552 38.1944 113.422 38.1944C106.292 38.1944 100.512 43.7909 100.512 50.6945C100.512 57.5979 106.292 63.1944 113.422 63.1944Z" fill="url(#paint0_linear_121_66)"/>
<path fill-rule="evenodd" clip-rule="evenodd" d="M177.969 281.25C198.567 281.25 215.265 265.083 215.265 245.139V220.139H150.715V213.195H243.954C264.551 213.195 281.248 197.027 281.248 177.083V122.916C281.248 102.973 264.551 86.8057 243.954 86.8057H222.437V117.361C222.437 137.305 205.739 153.472 185.142 153.472H116.289C98.8604 153.472 84.7322 167.152 84.7322 184.027V245.139C84.7322 265.083 101.43 281.25 122.027 281.25H177.969ZM186.577 236.806C179.446 236.806 173.666 242.402 173.666 249.306C173.666 256.209 179.446 261.805 186.577 261.805C193.706 261.805 199.486 256.209 199.486 249.306C199.486 242.402 193.706 236.806 186.577 236.806Z" fill="url(#paint1_linear_121_66)"/>
<defs>
<linearGradient id="paint0_linear_121_66" x1="117.008" y1="18.75" x2="117.008" y2="213.194" gradientUnits="userSpaceOnUse">
<stop stop-color="#327EBD"/>
<stop offset="1" stop-color="#1565A7"/>
</linearGradient>
<linearGradient id="paint1_linear_121_66" x1="182.991" y1="86.8057" x2="182.991" y2="281.25" gradientUnits="userSpaceOnUse">
<stop stop-color="#FFDA4B"/>
<stop offset="1" stop-color="#F9C600"/>
</linearGradient>
</defs>
</svg>
