<svg width="300" height="300" viewBox="0 0 300 300" fill="none" xmlns="http://www.w3.org/2000/svg">
<path d="M0 50C0 22.3858 22.3858 0 50 0H250C277.614 0 300 22.3858 300 50V250C300 277.614 277.614 300 250 300H50C22.3858 300 0 277.614 0 250V50Z" fill="#F1F1F1"/>
<path d="M170.986 140.533C170.986 138.518 169.381 136.905 167.375 136.905H120.3C118.294 136.905 116.689 135.293 116.689 133.278V118.365C116.689 116.349 118.294 114.737 120.3 114.737H238.791C240.396 114.737 241.466 113.125 240.798 111.647C227.424 81.4176 198.804 59.5181 164.834 55.6219C106.391 48.9042 55.5705 97.54 59.1814 156.521C62.2574 206.366 103.582 246 154.002 246C158.682 246 163.363 245.597 167.777 245.06C169.649 244.791 170.986 243.179 170.986 241.432V140.533Z" fill="#111110"/>
</svg>
