<svg width="95" height="95" viewBox="0 0 95 95" fill="none" xmlns="http://www.w3.org/2000/svg">
<path d="M55.38 42.32C55.38 41.37 54.61 40.59 53.65 40.59H31.14C30.19 40.59 29.41 39.82 29.41 38.86V31.79C29.41 30.84 30.18 30.06 31.14 30.06H87.8C88.57 30.06 89.08 29.26 88.77 28.56C82.37 14.19 68.71 3.74999 52.45 1.89999C24.53 -1.27001 0.210003 21.84 1.95 49.88C3.43 73.62 23.15 92.43 47.27 92.43C49.51 92.43 51.71 92.27 53.87 91.95C54.74 91.82 55.38 91.08 55.38 90.21V42.32Z" fill="#ECF0E5"/>
<path d="M69.03 40.6C68.1 40.6 67.34 41.36 67.34 42.29V85.93C67.34 86.77 68.24 87.31 68.98 86.9C83.1 79.2 92.67 64.23 92.67 47.01C92.67 45.28 92.58 43.64 92.39 41.98C92.3 41.18 91.63 40.57 90.82 40.57L69.03 40.6Z" fill="#ECF0E5"/>
</svg>
