<svg width="300" height="300" viewBox="0 0 300 300" fill="none" xmlns="http://www.w3.org/2000/svg">
<g clip-path="url(#clip0_121_64)">
<path d="M0 150V300H300V0H0V150ZM241.762 138.05C249.387 139.95 255.187 143.338 260.525 148.863C263.287 151.813 267.387 157.187 267.712 158.487C267.812 158.862 254.763 167.613 246.863 172.525C246.575 172.713 245.425 171.475 244.15 169.575C240.275 163.95 236.237 161.525 230.05 161.1C220.95 160.475 215.1 165.237 215.15 173.187C215.067 175.143 215.507 177.084 216.425 178.813C218.425 182.95 222.15 185.437 233.8 190.475C255.288 199.725 264.475 205.813 270.187 214.475C276.562 224.138 278 239.575 273.662 251.05C268.912 263.525 257.1 272 240.475 274.8C235.338 275.712 223.15 275.575 217.625 274.575C205.575 272.425 194.15 266.475 187.1 258.663C184.338 255.625 178.95 247.662 179.288 247.1C179.425 246.9 180.662 246.138 182.037 245.338C183.387 244.575 188.425 241.662 193.187 238.9L201.813 233.9L203.625 236.575C206.15 240.425 211.663 245.713 215 247.475C224.575 252.525 237.712 251.813 244.187 246C245.49 244.903 246.52 243.52 247.199 241.959C247.878 240.397 248.186 238.7 248.1 237C248.1 233.525 247.662 232 245.85 229.375C243.525 226.05 238.762 223.25 225.237 217.375C209.762 210.712 203.1 206.575 197 200C193.193 195.661 190.381 190.541 188.762 185C187.625 180.763 187.338 170.138 188.238 165.863C191.425 150.9 202.713 140.488 219 137.388C224.288 136.388 236.575 136.762 241.762 138.05ZM171.337 150.575L171.438 162.863H132.375V273.813H104.75V162.863H65.725V150.812C65.725 144.137 65.8625 138.562 66.05 138.437C66.2 138.237 89.9625 138.138 118.763 138.188L171.2 138.338L171.337 150.575Z" fill="#3178C6"/>
</g>
<defs>
<clipPath id="clip0_121_64">
<rect width="300" height="300" rx="15" fill="white"/>
</clipPath>
</defs>
</svg>
